<?xml version="1.0" standalone="no"?>
<!DOCTYPE svg PUBLIC "-//W3C//DTD SVG 20010904//EN"
 "http://www.w3.org/TR/2001/REC-SVG-20010904/DTD/svg10.dtd">
<svg version="1.0" xmlns="http://www.w3.org/2000/svg"
 width="512.000000pt" height="512.000000pt" viewBox="0 0 512.000000 512.000000"
 preserveAspectRatio="xMidYMid meet">

<g transform="translate(0.000000,512.000000) scale(0.100000,-0.100000)"
fill="#000000" stroke="none">
<path d="M1605 4911 c-45 -11 -74 -32 -98 -71 -21 -34 -22 -46 -25 -337 l-3
-302 -459 -3 c-445 -3 -459 -4 -486 -24 -15 -11 -37 -33 -48 -48 l-21 -27 0
-1899 0 -1899 21 -28 c12 -15 36 -37 55 -48 34 -20 52 -20 1509 -20 1457 0
1475 0 1508 20 18 11 43 36 55 55 21 34 22 47 25 337 l3 302 459 3 c445 3 459
4 486 24 15 11 37 33 48 48 21 27 21 31 24 1449 l2 1422 -528 527 -527 528
-985 -1 c-542 -1 -998 -4 -1015 -8z m1925 -593 c0 -443 2 -493 17 -510 15 -17
44 -18 515 -18 l498 0 0 -1365 c0 -1352 0 -1365 -20 -1385 -20 -20 -33 -20
-1463 -20 -1289 0 -1445 2 -1465 16 l-22 15 0 1868 c0 1439 3 1870 12 1879 9
9 238 12 970 12 l958 0 0 -492z m535 -8 l420 -420 -423 0 -422 0 0 420 c0 231
1 420 3 420 1 0 191 -189 422 -420z m-2583 -1742 c3 -1433 4 -1535 20 -1565
10 -17 32 -42 50 -55 l33 -23 973 -3 972 -2 0 -293 c0 -215 -3 -296 -12 -305
-9 -9 -349 -12 -1469 -12 -1312 0 -1459 2 -1473 16 -14 14 -16 198 -16 1875 0
1846 0 1859 20 1879 19 19 33 20 460 20 l440 0 2 -1532z"/>
<path d="M1856 4228 c-20 -28 -20 -43 0 -62 14 -14 89 -16 679 -16 l665 0 16
25 c15 23 15 27 0 50 l-16 25 -665 0 -664 0 -15 -22z"/>
<path d="M1854 3865 c-15 -23 -15 -27 0 -50 l16 -25 665 0 665 0 16 25 c15 23
15 27 0 50 l-16 25 -665 0 -665 0 -16 -25z"/>
<path d="M1856 3514 c-20 -19 -20 -34 0 -62 l15 -22 1124 0 1124 0 15 22 c20
28 20 43 0 62 -14 14 -131 16 -1139 16 -1008 0 -1125 -2 -1139 -16z"/>
<path d="M1909 3146 c-62 -42 -64 -57 -64 -386 0 -419 -16 -400 331 -400 223
0 232 1 264 23 68 46 70 58 70 382 0 324 -2 336 -70 383 -32 21 -41 22 -264
22 -229 0 -232 0 -267 -24z m485 -98 c14 -19 16 -63 16 -283 0 -220 -2 -264
-16 -283 -15 -21 -20 -22 -218 -22 -144 0 -205 3 -214 12 -17 17 -17 569 0
586 9 9 70 12 214 12 198 0 203 -1 218 -22z"/>
<path d="M2720 3151 c-14 -28 -13 -38 10 -61 20 -20 33 -20 700 -20 667 0 680
0 700 20 23 23 24 33 10 61 -10 18 -29 19 -710 19 -681 0 -700 -1 -710 -19z"/>
<path d="M2730 2800 c-11 -11 -20 -27 -20 -35 0 -8 9 -24 20 -35 20 -20 33
-20 700 -20 667 0 680 0 700 20 11 11 20 27 20 35 0 8 -9 24 -20 35 -20 20
-33 20 -700 20 -667 0 -680 0 -700 -20z"/>
<path d="M2730 2440 c-23 -23 -24 -33 -10 -61 10 -18 29 -19 710 -19 681 0
700 1 710 19 14 28 13 38 -10 61 -20 20 -33 20 -700 20 -667 0 -680 0 -700
-20z"/>
<path d="M1935 2086 c-40 -18 -73 -56 -85 -97 -6 -19 -10 -122 -10 -229 0
-183 1 -199 23 -240 13 -26 36 -53 57 -65 35 -20 49 -20 1075 -20 1026 0 1040
0 1075 20 21 12 44 39 58 65 22 43 23 52 20 262 -3 238 -4 242 -72 292 -27 21
-34 21 -1069 23 -853 2 -1047 0 -1072 -11z m2086 -96 c18 -10 19 -23 19 -218
0 -149 -3 -211 -12 -220 -17 -17 -2049 -17 -2066 0 -9 9 -12 71 -12 220 0 187
2 208 18 217 24 14 2026 15 2053 1z"/>
</g>
</svg>
